<svg id="visual" viewBox="0 0 900 600" width="900" height="600" xmlns="http://www.w3.org/2000/svg" xmlns:xlink="http://www.w3.org/1999/xlink" version="1.1"><rect x="0" y="0" width="900" height="600" fill="#2c3035"></rect><path d="M0 402L129 402L129 412L257 412L257 416L386 416L386 459L514 459L514 451L643 451L643 424L771 424L771 414L900 414L900 438L900 601L900 601L771 601L771 601L643 601L643 601L514 601L514 601L386 601L386 601L257 601L257 601L129 601L129 601L0 601Z" fill="#0d3e66"></path><path d="M0 461L129 461L129 469L257 469L257 475L386 475L386 455L514 455L514 457L643 457L643 507L771 507L771 518L900 518L900 478L900 601L900 601L771 601L771 601L643 601L643 601L514 601L514 601L386 601L386 601L257 601L257 601L129 601L129 601L0 601Z" fill="#1f548c"></path><path d="M0 552L129 552L129 558L257 558L257 510L386 510L386 517L514 517L514 532L643 532L643 557L771 557L771 532L900 532L900 509L900 601L900 601L771 601L771 601L643 601L643 601L514 601L514 601L386 601L386 601L257 601L257 601L129 601L129 601L0 601Z" fill="#386ab4"></path></svg>